<svg width="18" height="15" viewBox="0 0 18 15" fill="none" xmlns="http://www.w3.org/2000/svg">
<g clip-path="url(#clip0)">
<path fill-rule="evenodd" clip-rule="evenodd" d="M1.93945 8.40485C1.93945 8.27224 1.99259 8.14506 2.08717 8.05129C2.18175 7.95753 2.31002 7.90485 2.44378 7.90485L14.3388 7.90485L11.1646 4.75885C11.0699 4.66496 11.0167 4.53762 11.0167 4.40485C11.0167 4.27207 11.0699 4.14473 11.1646 4.05085C11.2593 3.95696 11.3877 3.90422 11.5216 3.90422C11.6556 3.90422 11.784 3.95696 11.8787 4.05085L15.9133 8.05085C15.9603 8.09729 15.9975 8.15247 16.023 8.21321C16.0484 8.27396 16.0615 8.33908 16.0615 8.40485C16.0615 8.47062 16.0484 8.53574 16.023 8.59648C15.9975 8.65723 15.9603 8.7124 15.9133 8.75885L11.8787 12.7588C11.784 12.8527 11.6556 12.9055 11.5216 12.9055C11.3877 12.9055 11.2593 12.8527 11.1646 12.7588C11.0699 12.665 11.0167 12.5376 11.0167 12.4048C11.0167 12.2721 11.0699 12.1447 11.1646 12.0508L14.3388 8.90485H2.44378C2.31002 8.90485 2.18175 8.85217 2.08717 8.7584C1.99259 8.66463 1.93945 8.53746 1.93945 8.40485Z" fill="black"/>
</g>
<defs>
<clipPath id="clip0">
<rect width="16" height="16.1384" fill="white" transform="translate(0.930786 16.4048) rotate(-90)"/>
</clipPath>
</defs>
</svg>
